#N canvas 561 186 952 631 10;
#X declare -path bin;
#X obj 178 77 ctlin;
#X obj 165 549 ctlout;
#N canvas 639 411 546 461 repeatOnOtherDevice 0;
#X obj 78 56 inlet;
#X obj 324 56 inlet;
#X text 366 57 nombre de sorties midi;
#X text 120 56 message midi à répéter;
#X text 88 76 list : VAL CC CH;
#X obj 110 143 unpack 0 0 0;
#X obj 110 398 pack 0 0 0;
#X obj 58 220 until;
#X obj 58 195 f;
#X obj 324 78 t f f;
#X obj 190 288 + 16;
#X obj 160 288 f 1;
#X obj 177 351 %;
#X obj 356 223 * 16;
#X obj 58 242 t b b;
#X obj 102 327 f;
#X obj 78 118 t b a b;
#X obj 177 330 +;
#X obj 110 420 outlet;
#X msg 178 232 16;
#X obj 177 373 + 1;
#X obj 195 196 - 1;
#X connect 0 0 16 0;
#X connect 1 0 9 0;
#X connect 5 0 15 1;
#X connect 5 1 6 1;
#X connect 5 2 21 0;
#X connect 6 0 18 0;
#X connect 7 0 14 0;
#X connect 8 0 7 0;
#X connect 9 0 8 1;
#X connect 9 1 13 0;
#X connect 10 0 11 1;
#X connect 11 0 10 0;
#X connect 11 0 17 0;
#X connect 12 0 20 0;
#X connect 13 0 12 1;
#X connect 14 0 15 0;
#X connect 14 1 11 0;
#X connect 15 0 6 0;
#X connect 16 0 8 0;
#X connect 16 1 5 0;
#X connect 16 2 19 0;
#X connect 17 0 12 0;
#X connect 19 0 11 1;
#X connect 20 0 6 2;
#X connect 21 0 17 1;
#X restore 165 350 pd repeatOnOtherDevice;
#N canvas 1 93 588 300 threshold 0;
#X obj 246 107 > 30;
#X obj 246 129 * 64;
#X text -106 107 filtre de pression \, on ignore les petites frappes
;
#X text -134 128 si la pression dépasse le seuil \, on envoie 64 sinon
0;
#X obj 246 151 change;
#X text -169 152 trigger de shmidt : on ne renvoie pas la valeur tant
qu'on n'est pas redescendu en dessous du seuil;
#X obj 246 36 inlet;
#X obj 246 213 outlet;
#X obj 246 58 unpack 0 0 0;
#X obj 246 193 pack 0 0 0;
#X connect 0 0 1 0;
#X connect 1 0 4 0;
#X connect 4 0 9 0;
#X connect 6 0 8 0;
#X connect 8 0 0 0;
#X connect 8 1 9 1;
#X connect 8 2 9 2;
#X connect 9 0 7 0;
#X restore 165 267 pd threshold;
#X obj 165 145 pack 0 0 0;
#X obj 165 502 unpack 0 0 0;
#X text 227 104 on reçoit tous les controleurs MIDI \, sur tous les
canaux;
#X text 252 120 canaux 1 à 16 : interface MIDI n°1;
#X text 252 135 canaux 17 à 32 : interface MIDI n°2;
#X text 267 150 et ainsi de suite;
#X floatatom 316 327 5 0 0 0 numOUTs - -, f 5;
#X text 355 327 nombre de sorties MIDI;
#X text 258 268 on seuil la valeur du controleur pour n'envoyer que
2 valeurs : 0 ou 64;
#X text 324 353 on répète le messages sur toutes les autres interfaces
;
#X text 240 212 simulation de la réception du controleur 7 sur le
canal 1;
#X msg 186 211 \$1 7 1;
#X obj 189 187 hsl 128 15 0 127 0 0 empty empty empty -2 -8 0 10 -262144
-1 -1 0 1;
#X obj 197 433 spigot;
#X obj 197 475 print MIDIsend;
#X obj 236 412 tgl 15 0 empty empty empty 17 7 0 10 -262144 -1 -1 0
1;
#X text 253 412 coche pour monitorer dans la console PD les messages
envoyés;
#X msg 197 455 controleur MIDI #\$2 valeur \$1 canal \$3;
#N canvas 635 419 546 461 sendToAllDevices 0;
#X obj 78 56 inlet;
#X obj 324 56 inlet;
#X text 366 57 nombre de sorties midi;
#X text 120 56 message midi à répéter;
#X text 88 76 list : VAL CC CH;
#X obj 110 398 pack 0 0 0;
#X obj 58 220 until;
#X obj 58 195 f;
#X obj 210 288 + 16;
#X obj 180 288 f 1;
#X obj 58 242 t b b;
#X obj 102 327 f;
#X obj 78 118 t b a b;
#X obj 110 420 outlet;
#X obj 180 332 +;
#X obj 110 143 unpack 0 0 0;
#X msg 198 242 1;
#X connect 0 0 12 0;
#X connect 1 0 7 1;
#X connect 5 0 13 0;
#X connect 6 0 10 0;
#X connect 7 0 6 0;
#X connect 8 0 9 1;
#X connect 9 0 8 0;
#X connect 9 0 14 0;
#X connect 10 0 11 0;
#X connect 10 1 9 0;
#X connect 11 0 5 0;
#X connect 12 0 7 0;
#X connect 12 1 15 0;
#X connect 12 2 16 0;
#X connect 14 0 5 2;
#X connect 15 0 11 1;
#X connect 15 1 5 1;
#X connect 15 2 14 1;
#X connect 16 0 9 1;
#X restore -5 350 pd sendToAllDevices;
#X obj 165 399 t a a;
#N canvas 593 411 726 392 keyboard 0;
#X obj 11 322 outlet;
#X obj 44 191 % 128;
#X obj 44 162 t f f;
#X obj 109 196 / 128;
#X obj 109 218 int;
#X text 153 194 les valeurs de touches vont de 0 à 255 alors que les
controleur MIDI ne vont que jusqu'à 127 Donc les touches avec une
valeur supérieur à 127 sont envoyé sur le canal 2;
#X obj 11 -21 loadbang;
#X msg 11 1 open 0 \, 1 \, linux_code_mode 1;
#X obj 11 61 route key;
#X obj 11 269 pack 0 0 0;
#X obj 11 103 unpack;
#X msg 11 83 \$2 \$1;
#X obj 11 125 > 0;
#X obj -12 166 * 127;
#X obj -12 188 change;
#X text 104 36 converti les numéros de touches en controleur avec
valeur 0 ou 127;
#X obj 11 39 hid;
#X connect 1 0 9 1;
#X connect 2 0 1 0;
#X connect 2 1 3 0;
#X connect 3 0 4 0;
#X connect 4 0 9 2;
#X connect 6 0 7 0;
#X connect 7 0 16 0;
#X connect 8 0 11 0;
#X connect 9 0 0 0;
#X connect 10 0 12 0;
#X connect 10 1 2 0;
#X connect 11 0 10 0;
#X connect 12 0 13 0;
#X connect 13 0 14 0;
#X connect 14 0 9 0;
#X connect 16 0 8 0;
#X restore -5 324 pd keyboard;
#X obj 757 205 cnv 15 100 60 empty empty empty 20 12 0 14 -261682 -66577
0;
#N canvas 509 295 620 300 README 0;
#X text 126 37 pour essayer le patch sous Mac OS avec Pd-extended :
;
#X text 158 65 1- vérifier dans la configuration MIDI si toutes les
interfaces sont sélectionnées en entrée et en sortie;
#X text 158 99 2- renseigner le nombres de sorties MIDI dans la boite
"numOUTs";
#X text 159 132 3- cliquer sur le;
#X obj 289 132 tgl 15 0 empty empty empty 17 7 0 10 -262144 -1 -1 0
1;
#X text 309 132 pour activer l'affichage dans la console Pd;
#X text 161 155 4- soit rentrer des valeurs à la souris avec le slider
\, soit envoyer des control change depuis un controleur MIDI.;
#X text 161 211 Des messages doivent apapraitre dans la console de
Pd à chaque message MIDI envoyé.;
#X restore 777 239 pd README;
#N canvas 1 97 735 300 quit 0;
#X obj 63 80 netreceive 3000;
#X obj 63 124 t b;
#X msg 63 146 quit;
#X obj 63 102 route quit;
#X obj 63 208 s pd;
#X obj 63 168 t a a;
#X text 238 68 ce petit bout de patch permet de fermer proprement Pd
depuis la ligne de commande :;
#X text 267 101 echo "quit \; " | pdsend 3000;
#X msg 118 198 receive quit signal from network;
#X obj 118 229 print -n;
#X connect 0 0 3 0;
#X connect 1 0 2 0;
#X connect 2 0 5 0;
#X connect 3 0 1 0;
#X connect 5 0 4 0;
#X connect 5 1 8 0;
#X connect 8 0 9 0;
#X restore 799 370 pd quit;
#N canvas 433 130 1054 914 midi-connection 0;
#X obj 70 10 aconnect/aconnect;
#N canvas 1 90 450 300 disconnect_all 0;
#X msg 140 203;
#X obj 140 113 t b b b;
#X msg 292 149 set;
#X obj 140 91 bng 15 250 50 0 empty empty empty 17 7 0 10 -262144 -1
-1;
#X obj 163 149 aconnect/aconnect;
#X msg 163 174 add2 \$1 \$2 \$3 \$4 \, addcomma;
#X msg 140 228 disconnect \$1 \$2 \$3 \$4;
#X text 175 88 disconnect;
#X obj 140 58 inlet;
#X connect 0 0 6 0;
#X connect 1 0 0 0;
#X connect 1 1 4 0;
#X connect 1 2 2 0;
#X connect 2 0 0 0;
#X connect 3 0 1 0;
#X connect 4 0 5 0;
#X connect 5 0 0 0;
#X connect 6 0 4 0;
#X connect 8 0 3 0;
#X restore 119 -88 pd disconnect_all;
#X msg 70 -31 devices;
#X obj 70 50 route src dst;
#X obj 209 -122 zexy;
#X obj 70 170 s2l;
#X msg 70 130 \$2;
#X obj 70 190 l2s _;
#X obj 70 150 symbol;
#X obj 70 110 t a a;
#X obj 312 293 list;
#X obj 312 313 list prepend add;
#X obj 70 -116 bng 15 250 50 0 empty empty empty 17 7 0 10 -262144
-1 -1;
#X obj 70 441 textfile;
#X obj 84 390 r \$0-reset;
#X msg 84 412 clear;
#X obj 70 295 list;
#X obj 70 315 list prepend add;
#X obj 70 335 list trim;
#X obj 97 -57 s \$0-reset;
#X obj 70 210 sel Pure_Data Midi_Through;
#X text 89 245 and forget Midi_Through;
#X obj 570 170 s2l;
#X msg 570 130 \$2;
#X obj 570 190 l2s _;
#X obj 570 150 symbol;
#X obj 570 110 t a a;
#X obj 812 293 list;
#X obj 812 313 list prepend add;
#X obj 812 333 list trim;
#X obj 570 295 list;
#X obj 570 315 list prepend add;
#X obj 570 210 sel Pure_Data Midi_Through;
#X text 589 245 and forget Midi_Through;
#X text 577 232 list Pd's in in one file \, other ins in another one
;
#X text 77 233 list Pd's out in one file \, other outs in another one
;
#X obj 70 -88 t b b b;
#X text 124 441 Pd's src;
#X obj 70 357 t a b;
#X obj 195 405 f;
#X obj 195 425 + 1;
#X msg 210 385 0;
#X obj 180 453 f;
#X floatatom 216 457 5 0 0 0 - - -, f 5;
#X obj 312 440 textfile;
#X obj 326 389 r \$0-reset;
#X msg 326 411 clear;
#X obj 312 334 list trim;
#X obj 312 356 t a b;
#X obj 437 404 f;
#X obj 437 424 + 1;
#X msg 452 384 0;
#X obj 422 452 f;
#X floatatom 458 456 5 0 0 0 - - -, f 5;
#X obj 570 441 textfile;
#X obj 584 390 r \$0-reset;
#X msg 584 412 clear;
#X obj 570 335 list trim;
#X obj 570 357 t a b;
#X obj 695 405 f;
#X obj 695 425 + 1;
#X msg 710 385 0;
#X obj 680 453 f;
#X floatatom 716 457 5 0 0 0 - - -, f 5;
#X obj 812 437 textfile;
#X obj 826 386 r \$0-reset;
#X msg 826 408 clear;
#X obj 812 353 t a b;
#X obj 937 401 f;
#X obj 937 421 + 1;
#X msg 952 381 0;
#X obj 922 449 f;
#X floatatom 958 453 5 0 0 0 - - -, f 5;
#X obj 421 521 t b f;
#X obj 421 547 min;
#X floatatom 431 569 5 0 0 0 - - -, f 5;
#X obj 521 521 t b f;
#X obj 521 547 min;
#X floatatom 531 569 5 0 0 0 - - -, f 5;
#X obj 506 599 f;
#X obj 37 513 t b b;
#X obj 64 533 s \$0-rewind;
#X obj 291 157 r \$0-rewind;
#X msg 291 177 rewind;
#X obj 506 626 until;
#X obj 37 -148 t b b;
#X obj 506 648 t b b;
#X msg 658 140 \$1 \$3;
#X msg 154 161 \$1 \$3;
#X text 625 441 Pd's dst;
#X text 869 437 other dst;
#X text 365 441 other src;
#X obj 598 641 list append;
#X msg 598 663 connect \$1 \$2 \$3 \$4;
#X obj 39 -171 bng 15 250 50 0 empty empty empty 17 7 0 10 -262144
-1 -1;
#X obj 774 269 t b;
#X obj 267 259 t b;
#X obj 133 -107 bng 15 250 50 0 empty empty empty 17 7 0 10 -262144
-1 -1;
#X obj 698 705 s to-aconnect;
#X obj 80 -11 r to-aconnect;
#X obj 396 599 f;
#X obj 396 626 until;
#X obj 396 648 t b b;
#X obj 738 641 list append;
#X msg 738 663 connect \$1 \$2 \$3 \$4;
#X obj 449 699 outlet;
#X text 493 699 MIDI output port number;
#X obj 64 -171 inlet;
#X obj 103 -192 loadbang;
#X obj 103 -170 delay 1000;
#X text 437 -89 ce patch connect toutes les sources disponibles à
PureData et connect PureData à toutes les destinations disponibles
;
#X connect 0 0 3 0;
#X connect 2 0 0 0;
#X connect 3 0 9 0;
#X connect 3 1 26 0;
#X connect 5 0 7 0;
#X connect 6 0 8 0;
#X connect 7 0 20 0;
#X connect 8 0 5 0;
#X connect 9 0 6 0;
#X connect 9 1 88 0;
#X connect 10 0 11 0;
#X connect 11 0 47 0;
#X connect 12 0 36 0;
#X connect 13 0 103 0;
#X connect 14 0 15 0;
#X connect 14 0 41 0;
#X connect 15 0 13 0;
#X connect 16 0 17 0;
#X connect 17 0 18 0;
#X connect 18 0 38 0;
#X connect 20 0 16 0;
#X connect 20 2 96 0;
#X connect 22 0 24 0;
#X connect 23 0 25 0;
#X connect 24 0 32 0;
#X connect 25 0 22 0;
#X connect 26 0 23 0;
#X connect 26 1 87 0;
#X connect 27 0 28 0;
#X connect 28 0 29 0;
#X connect 29 0 67 0;
#X connect 30 0 31 0;
#X connect 31 0 57 0;
#X connect 32 0 30 0;
#X connect 32 2 95 0;
#X connect 36 0 2 0;
#X connect 36 1 19 0;
#X connect 36 2 1 0;
#X connect 38 0 13 0;
#X connect 38 1 39 0;
#X connect 39 0 40 0;
#X connect 40 0 39 1;
#X connect 40 0 43 0;
#X connect 40 0 42 1;
#X connect 40 0 74 0;
#X connect 41 0 39 1;
#X connect 44 0 92 0;
#X connect 45 0 46 0;
#X connect 45 0 51 0;
#X connect 46 0 44 0;
#X connect 47 0 48 0;
#X connect 48 0 44 0;
#X connect 48 1 49 0;
#X connect 49 0 50 0;
#X connect 50 0 49 1;
#X connect 50 0 53 0;
#X connect 50 0 52 1;
#X connect 50 0 77 0;
#X connect 51 0 49 1;
#X connect 54 0 92 1;
#X connect 55 0 56 0;
#X connect 55 0 61 0;
#X connect 56 0 54 0;
#X connect 57 0 58 0;
#X connect 58 0 54 0;
#X connect 58 1 59 0;
#X connect 59 0 60 0;
#X connect 60 0 59 1;
#X connect 60 0 63 0;
#X connect 60 0 62 1;
#X connect 60 0 76 0;
#X connect 61 0 59 1;
#X connect 64 0 103 1;
#X connect 65 0 66 0;
#X connect 65 0 70 0;
#X connect 66 0 64 0;
#X connect 67 0 64 0;
#X connect 67 1 68 0;
#X connect 68 0 69 0;
#X connect 69 0 68 1;
#X connect 69 0 72 0;
#X connect 69 0 71 1;
#X connect 69 0 73 0;
#X connect 70 0 68 1;
#X connect 73 0 74 0;
#X connect 73 1 74 1;
#X connect 74 0 75 0;
#X connect 74 0 100 1;
#X connect 76 0 77 0;
#X connect 76 1 77 1;
#X connect 77 0 78 0;
#X connect 77 0 79 1;
#X connect 77 0 105 0;
#X connect 79 0 84 0;
#X connect 80 0 79 0;
#X connect 80 0 100 0;
#X connect 80 1 81 0;
#X connect 82 0 83 0;
#X connect 83 0 13 0;
#X connect 83 0 44 0;
#X connect 83 0 54 0;
#X connect 83 0 64 0;
#X connect 84 0 86 0;
#X connect 85 0 80 0;
#X connect 85 1 36 0;
#X connect 86 0 44 0;
#X connect 86 1 54 0;
#X connect 87 0 30 1;
#X connect 87 0 27 1;
#X connect 88 0 10 1;
#X connect 88 0 16 1;
#X connect 92 0 93 0;
#X connect 93 0 98 0;
#X connect 94 0 85 0;
#X connect 95 0 27 0;
#X connect 96 0 10 0;
#X connect 97 0 1 0;
#X connect 99 0 0 0;
#X connect 100 0 101 0;
#X connect 101 0 102 0;
#X connect 102 0 13 0;
#X connect 102 1 64 0;
#X connect 103 0 104 0;
#X connect 104 0 98 0;
#X connect 107 0 85 0;
#X connect 108 0 109 0;
#X connect 109 0 85 0;
#X restore 316 306 pd midi-connection;
#X obj 293 60 declare -path bin;
#X connect 0 0 4 0;
#X connect 0 1 4 1;
#X connect 0 2 4 2;
#X connect 2 0 23 0;
#X connect 3 0 2 0;
#X connect 4 0 3 0;
#X connect 5 0 1 0;
#X connect 5 1 1 1;
#X connect 5 2 1 2;
#X connect 10 0 2 1;
#X connect 10 0 22 1;
#X connect 15 0 3 0;
#X connect 16 0 15 0;
#X connect 17 0 21 0;
#X connect 19 0 17 1;
#X connect 21 0 18 0;
#X connect 22 0 23 0;
#X connect 23 0 5 0;
#X connect 23 1 17 0;
#X connect 24 0 22 0;
#X connect 28 0 10 0;
